<svg width="24" height="24" viewBox="0 0 24 24" fill="none" xmlns="http://www.w3.org/2000/svg">
<g clip-path="url(#clip0_3_290)">
<mask id="mask0_3_290" style="mask-type:alpha" maskUnits="userSpaceOnUse" x="0" y="0" width="24" height="24">
<path d="M0 24L24 24L24 0L0 0L0 24Z" fill="#D9D9D9"/>
</mask>
<g mask="url(#mask0_3_290)">
<path d="M19 3C19.55 3 20.0208 3.19583 20.4125 3.5875C20.8042 3.97917 21 4.45 21 5V19C21 19.55 20.8042 20.0208 20.4125 20.4125C20.0208 20.8042 19.55 21 19 21H12V19H19V5H12V3H19ZM8 7L9.375 8.45L6.825 11H15V13H6.825L9.375 15.55L8 17L3 12L8 7Z" fill="black"/>
</g>
</g>
<defs>
<clipPath id="clip0_3_290">
<rect width="24" height="24" fill="white"/>
</clipPath>
</defs>
</svg>
